<svg xmlns="http://www.w3.org/2000/svg" width="163.415" height="52.751" viewBox="0 0 163.415 52.751"><g transform="translate(-259.797 -1228.064)"><path d="M287.169,1270.832l-9.418,14.514-11.142-17.005H259.8v.25c1.135.218,2.228,3.114,2.228,6.291v15.136h1.724v-16.756l11.016,16.756h1.892l10.68-16.507v16.507H292.8V1268.34h-3.994Z" transform="translate(0 -28.804)" fill="#d9b26a"/><path d="M542.267,1290.017V1270.77l22.452,19.247h1.724V1268.34h-1.724v15.479l-18.08-15.479h-8.325v.25c1.135.218,2.229,3.114,2.229,6.291v15.136Z" transform="translate(-199.189 -28.804)" fill="#d9b26a"/><path d="M796.281,1268.34v.25c1.136.218,2.229,3.114,2.229,6.291v2.71c-.379,6.1,1.346,13.112-6.307,14.482l.126.218c11.058-2.18,11.647-5.793,11.647-14.7v-9.25Z" transform="translate(-380.764 -28.804)" fill="#d9b26a"/><path d="M427.679,1286.284l2.072,3.654h5.926L423.4,1268.227h-8.7v.282c1.091.217.67,3.458-.968,6.29h.041l-8.575,15.139h1.847l1.941-3.466.413-.74s.008,0,.012-.008l.715-1.256h16.533l.936,1.664Zm-16.755-3.224.48-.847,6.993-12.335,7.3,12.874.175.308Z" transform="translate(-103.986 -28.724)" fill="#d9b26a"/><path d="M676.093,1268.227v.282c1.091.217.67,3.458-.969,6.29h.041l-8.575,15.139h1.847l1.941-3.466.413-.74s.008,0,.012-.008l.715-1.256h16.534l.935,1.664.086.152,2.072,3.654h5.926l-12.278-21.711Zm11.169,14.833H672.318l.48-.847,6.993-12.335,7.3,12.874Z" transform="translate(-290.929 -28.724)" fill="#d9b26a"/><path d="M575.217,1241.42q2.087-.963,3.291-1.5t1.571-.654h-2.316a14.5,14.5,0,0,0-4.587,1.605l-4.862,2.225h2.293A14.767,14.767,0,0,0,575.217,1241.42Z" transform="translate(-220.644 -8.01)" fill="#d9b26a"/><path d="M320.087,1241.42q2.087-.963,3.291-1.5t1.571-.654h-2.316a14.5,14.5,0,0,0-4.587,1.605l-4.862,2.225h2.293A14.769,14.769,0,0,0,320.087,1241.42Z" transform="translate(-38.181 -8.01)" fill="#d9b26a"/><path d="M811.382,1235.084a3.4,3.4,0,0,0,2.61-1.186,3.874,3.874,0,0,0,1.048-2.7,3.2,3.2,0,0,0-.8-2.263,2.882,2.882,0,0,0-2.212-.874,3.351,3.351,0,0,0-2.581,1.2,3.9,3.9,0,0,0-1.034,2.682,3.217,3.217,0,0,0,.774,2.248A2.815,2.815,0,0,0,811.382,1235.084Zm-1.51-5.7a1.793,1.793,0,0,1,1.547-.752,2.1,2.1,0,0,1,1.164.383,3.179,3.179,0,0,1,1.091,1.316,3.873,3.873,0,0,1,.383,1.677,2.838,2.838,0,0,1-.477,1.648,1.675,1.675,0,0,1-1.453.781,2.394,2.394,0,0,1-1.988-1.113,3.684,3.684,0,0,1-.745-2.234A2.858,2.858,0,0,1,809.871,1229.38Z" transform="translate(-392.361)" fill="#d9b26a"/><path d="M349.906,1388.3a4.417,4.417,0,0,0-2.039-.449h-3.121v7.139h3.121a4.417,4.417,0,0,0,2.039-.448,3.358,3.358,0,0,0,1.367-1.249,3.834,3.834,0,0,0,0-3.747A3.363,3.363,0,0,0,349.906,1388.3Zm.2,4.405a2.208,2.208,0,0,1-.908.857,2.973,2.973,0,0,1-1.392.306h-1.733v-4.895h1.733a2.973,2.973,0,0,1,1.392.306,2.222,2.222,0,0,1,.908.852,2.742,2.742,0,0,1,0,2.575Z" transform="translate(-60.754 -114.274)" fill="#d9b26a"/><path d="M384.238,1391.908h3.447v-1.091h-3.447v-1.856h3.885v-1.112h-5.211v7.139h5.354v-1.112h-4.028Z" transform="translate(-88.049 -114.275)" fill="#d9b26a"/><path d="M415.4,1393.352l-2.373-5.5h-1.438l3.121,7.139h1.305l3.11-7.139H417.8Z" transform="translate(-108.56 -114.274)" fill="#d9b26a"/><path d="M450.617,1391.908h3.447v-1.091h-3.447v-1.856H454.5v-1.112h-5.211v7.139h5.354v-1.112h-4.028Z" transform="translate(-135.522 -114.275)" fill="#d9b26a"/><path d="M483.2,1387.849h-1.326v7.139h5.058v-1.122H483.2Z" transform="translate(-158.823 -114.274)" fill="#d9b26a"/><path d="M516.253,1388.537a3.732,3.732,0,0,0-1.219-.77,4.4,4.4,0,0,0-3.064,0,3.72,3.72,0,0,0-1.224.77,3.463,3.463,0,0,0-.806,1.162,3.891,3.891,0,0,0,0,2.927,3.458,3.458,0,0,0,.806,1.163,3.718,3.718,0,0,0,1.224.77,4.184,4.184,0,0,0,1.54.275,4.115,4.115,0,0,0,1.524-.275,3.77,3.77,0,0,0,1.219-.765,3.4,3.4,0,0,0,.805-1.162,3.908,3.908,0,0,0,0-2.932A3.466,3.466,0,0,0,516.253,1388.537Zm-.433,3.63a2.483,2.483,0,0,1-.525.8,2.3,2.3,0,0,1-.8.525,2.814,2.814,0,0,1-2,0,2.3,2.3,0,0,1-.8-.525,2.458,2.458,0,0,1-.525-.8,2.752,2.752,0,0,1,0-2,2.431,2.431,0,0,1,.53-.8,2.371,2.371,0,0,1,.8-.525,2.632,2.632,0,0,1,.994-.183,2.673,2.673,0,0,1,1,.183,2.308,2.308,0,0,1,.8.525,2.486,2.486,0,0,1,.525.8,2.773,2.773,0,0,1,0,2.009Z" transform="translate(-178.692 -114.019)" fill="#d9b26a"/><path d="M554.749,1388.155a3.933,3.933,0,0,0-1.626-.306h-2.937v7.139h1.326v-2.06h1.611a3.931,3.931,0,0,0,1.626-.306,2.356,2.356,0,0,0,1.045-.877,2.689,2.689,0,0,0,0-2.712A2.357,2.357,0,0,0,554.749,1388.155Zm-.367,3.279a2.013,2.013,0,0,1-1.32.372h-1.55v-2.835h1.55a2.03,2.03,0,0,1,1.32.367,1.459,1.459,0,0,1,0,2.1Z" transform="translate(-207.679 -114.274)" fill="#d9b26a"/><path d="M591.123,1387.849l-2.786,4.73-2.833-4.73h-1.091v7.139h1.264v-4.668l2.346,3.852h.591l2.346-3.913.01,4.729h1.254l-.01-7.139Z" transform="translate(-232.158 -114.274)" fill="#d9b26a"/><path d="M628.523,1391.908h3.447v-1.091h-3.447v-1.856h3.885v-1.112H627.2v7.139h5.354v-1.112h-4.028Z" transform="translate(-262.756 -114.275)" fill="#d9b26a"/><path d="M664.805,1392.682l-3.937-4.833h-1.091v7.139h1.316v-4.832l3.936,4.832h1.091v-7.139h-1.315Z" transform="translate(-286.057 -114.274)" fill="#d9b26a"/><path d="M694.148,1388.971h2.366v6.016h1.326v-6.016h2.366v-1.122h-6.058Z" transform="translate(-310.637 -114.274)" fill="#d9b26a"/><path d="M730.023,1391.2a3.787,3.787,0,0,0-.826-.347q-.454-.132-.913-.24t-.831-.219a1.625,1.625,0,0,1-.6-.311.66.66,0,0,1-.23-.525.8.8,0,0,1,.158-.489,1.089,1.089,0,0,1,.5-.347,2.509,2.509,0,0,1,.892-.132,3.76,3.76,0,0,1,.979.137,3.961,3.961,0,0,1,.989.423l.418-1.03a3.676,3.676,0,0,0-1.1-.469,5.072,5.072,0,0,0-1.275-.163,3.909,3.909,0,0,0-1.616.29,2.142,2.142,0,0,0-.948.775,1.93,1.93,0,0,0-.311,1.066,1.71,1.71,0,0,0,.235.938,1.788,1.788,0,0,0,.606.586,3.787,3.787,0,0,0,.826.357q.453.138.908.239t.826.219a1.728,1.728,0,0,1,.607.316.656.656,0,0,1,.235.526.752.752,0,0,1-.163.474,1.081,1.081,0,0,1-.51.332,2.79,2.79,0,0,1-.908.122,3.835,3.835,0,0,1-1.3-.224,3.7,3.7,0,0,1-1.061-.561l-.459,1.03a3.486,3.486,0,0,0,1.214.617,5.32,5.32,0,0,0,1.6.24,3.943,3.943,0,0,0,1.621-.29,2.14,2.14,0,0,0,.954-.775,1.919,1.919,0,0,0,.311-1.056,1.721,1.721,0,0,0-.23-.928A1.7,1.7,0,0,0,730.023,1391.2Z" transform="translate(-332.812 -114.019)" fill="#d9b26a"/></g></svg>